<?xml version="1.0" encoding="UTF-8" standalone="no"?>
<svg
   viewBox="0 0 512 512"
   version="1.1"
   id="svg4"
   sodipodi:docname="layer-group-red.svg"
   inkscape:version="1.1.2 (0a00cf5339, 2022-02-04, custom)"
   xmlns:inkscape="http://www.inkscape.org/namespaces/inkscape"
   xmlns:sodipodi="http://sodipodi.sourceforge.net/DTD/sodipodi-0.dtd"
   xmlns="http://www.w3.org/2000/svg"
   xmlns:svg="http://www.w3.org/2000/svg">
  <defs
     id="defs8" />
  <sodipodi:namedview
     id="namedview6"
     pagecolor="#ffffff"
     bordercolor="#666666"
     borderopacity="1.0"
     inkscape:pageshadow="2"
     inkscape:pageopacity="0.0"
     inkscape:pagecheckerboard="0"
     showgrid="false"
     inkscape:zoom="0.97089076"
     inkscape:cx="8.754847"
     inkscape:cy="132.35269"
     inkscape:window-width="2560"
     inkscape:window-height="1385"
     inkscape:window-x="1920"
     inkscape:window-y="27"
     inkscape:window-maximized="1"
     inkscape:current-layer="svg4" />
  <!--! Font Awesome Free 6.0.0 by @fontawesome - https://fontawesome.com License - https://fontawesome.com/license/free (Icons: CC BY 4.0, Fonts: SIL OFL 1.1, Code: MIT License) Copyright 2022 Fonticons, Inc. -->
  <path
     d="M232.5 5.171C247.4-1.718 264.6-1.718 279.5 5.171L498.1 106.2C506.6 110.1 512 118.6 512 127.1C512 137.3 506.6 145.8 498.1 149.8L279.5 250.8C264.6 257.7 247.4 257.7 232.5 250.8L13.93 149.8C5.438 145.8 0 137.3 0 127.1C0 118.6 5.437 110.1 13.93 106.2L232.5 5.171zM498.1 234.2C506.6 238.1 512 246.6 512 255.1C512 265.3 506.6 273.8 498.1 277.8L279.5 378.8C264.6 385.7 247.4 385.7 232.5 378.8L13.93 277.8C5.438 273.8 0 265.3 0 255.1C0 246.6 5.437 238.1 13.93 234.2L67.13 209.6L219.1 279.8C242.5 290.7 269.5 290.7 292.9 279.8L444.9 209.6L498.1 234.2zM292.9 407.8L444.9 337.6L498.1 362.2C506.6 366.1 512 374.6 512 383.1C512 393.3 506.6 401.8 498.1 405.8L279.5 506.8C264.6 513.7 247.4 513.7 232.5 506.8L13.93 405.8C5.438 401.8 0 393.3 0 383.1C0 374.6 5.437 366.1 13.93 362.2L67.13 337.6L219.1 407.8C242.5 418.7 269.5 418.7 292.9 407.8V407.8z"
     id="path2"
     style="fill:#ff0000" />
  <path
     style="fill:#ff0000"
     d="m 246.68069,254.86502 c -2.26596,-0.40457 -5.62628,-1.22264 -7.46737,-1.81793 C 234.8004,251.62024 13.524558,149.40928 10.819793,147.54835 5.9305812,144.18448 2.4499146,139.01212 1.0339179,133.00629 -0.32249885,127.25316 0.27965767,122.17559 2.9370431,116.95856 4.1950882,114.48874 8.057903,110.30031 10.814811,108.41675 14.446943,105.93522 235.67328,3.9883538 240.39592,2.619787 c 11.58674,-3.35770529 23.00673,-3.04940822 33.93828,0.916207 6.91495,2.5085202 224.17525,103.032686 227.37134,105.202446 5.63346,3.82443 9.4452,10.49758 9.83415,17.21646 0.12906,2.22949 -0.0498,5.19228 -0.40657,6.73432 -1.47684,6.38343 -5.80437,12.57624 -10.83433,15.50423 -2.37805,1.3843 -219.16312,101.6492 -223.74862,103.48561 -9.34298,3.74168 -20.24437,4.90446 -29.86948,3.18596 z"
     id="path155" />
  <path
     style="fill:#ff0000;stroke-width:0.514991"
     d="m 250.17627,383.38463 c -5.29188,-0.65158 -10.00101,-1.81867 -14.23974,-3.52914 C 233.91495,379.03971 182.78318,355.5069 122.31036,327.56033 41.336927,290.13974 11.622901,276.17939 9.5637624,274.58932 3.6015778,269.98533 0.514991,263.36403 0.514991,255.17804 c 0,-4.59114 0.11893166,-5.1415 1.9313437,-8.93732 2.3842685,-4.99348 6.4488674,-9.16111 11.2113723,-11.49556 1.835348,-0.89963 14.618883,-6.84962 28.407856,-13.22218 l 25.070857,-11.58648 77.89751,35.98085 c 45.81742,21.16306 80.13669,36.72012 83.33474,37.77597 19.32926,6.38161 40.06484,5.89908 59.12657,-1.37593 2.47756,-0.94557 38.78541,-17.55832 80.68411,-36.91723 41.89869,-19.3589 76.42884,-35.19696 76.73366,-35.19568 0.94089,0.004 53.44906,24.37674 56.00506,25.99595 12.63621,8.00499 14.36148,25.72382 3.55681,36.5285 -1.6109,1.61091 -4.07521,3.50866 -5.47624,4.21721 -6.91549,3.49747 -220.92095,102.15755 -224.29735,103.40481 -7.202,2.66047 -17.35553,3.91643 -24.52502,3.03368 z"
     id="path194" />
  <path
     style="fill:#ff0000;stroke-width:0.514991"
     d="m 246.58071,510.87855 c -7.85773,-1.42536 2.86,3.40926 -189.663632,-85.55478 -43.999456,-20.33189 -45.674393,-21.15709 -48.7150615,-24.00094 -8.34451394,-7.80434 -10.2762478,-19.85502 -4.706333,-29.35936 1.9126052,-3.26361 6.4144577,-7.26864 10.4572415,-9.30318 3.06305,-1.54149 50.818245,-23.71042 52.61425,-24.42461 0.356575,-0.14179 35.813705,15.98029 78.793625,35.82686 42.97991,19.84657 80.23632,36.76559 82.79203,37.59782 19.4083,6.32004 40.39187,5.93746 58.68483,-1.06998 2.27274,-0.87061 37.73542,-17.10419 78.80595,-36.07463 41.07053,-18.97044 75.74094,-34.94347 77.04535,-35.49561 l 2.37165,-1.00391 27.49783,12.70096 c 17.39413,8.03417 28.45638,13.43707 30.10661,14.70433 5.14193,3.94864 8.51191,10.21801 8.87633,16.51315 0.557,9.62185 -4.35401,18.60757 -12.53072,22.92753 -6.45402,3.40983 -221.11986,102.37847 -225.03545,103.7494 -8.25337,2.8897 -19.0404,3.78235 -27.3945,2.26695 z"
     id="path233" />
  <path
     style="fill:#ff0000;stroke-width:0.0321869"
     d="m 302.79915,239.70205 c 0.009,-0.008 2.02161,-0.93766 4.47345,-2.06602 10.90196,-5.0172 34.30361,-15.81513 52.77048,-24.34923 5.98355,-2.76518 10.89729,-5.03496 10.91942,-5.04395 0.0286,-0.0116 0.04,0.0242 0.0395,0.12389 l -7.9e-4,0.14024 -33.75526,15.59457 -33.75527,15.59457 -0.35352,0.0102 c -0.19443,0.006 -0.34651,0.004 -0.33796,-0.004 z"
     id="path272" />
  <path
     style="fill:#f90013;stroke-width:0.0227596;fill-opacity:1"
     d="m 254.79374,255.95242 c -1.63262,-0.0531 -2.55152,-0.10421 -3.67567,-0.20429 -6.38679,-0.5686 -12.49217,-2.17676 -18.30436,-4.82135 -0.85026,-0.38687 -6.23326,-2.87644 -6.24508,-2.88826 -0.005,-0.005 -0.007,-0.14298 -0.003,-0.30609 l 0.006,-0.29655 0.75106,0.3403 c 7.95185,3.60287 11.24617,5.06293 11.96017,5.30081 1.27024,0.42321 4.21174,1.1645 6.30441,1.58879 4.45054,0.90234 9.19345,1.1864 14.0882,0.84375 3.77614,-0.26434 7.60318,-0.91947 11.24324,-1.92468 2.09646,-0.57893 4.58794,-1.43463 6.08819,-2.09097 1.855,-0.81155 11.35536,-5.15737 24.23898,-11.08783 l 1.52489,-0.70192 0.33181,0.0114 0.33182,0.0114 -11.84641,5.47368 c -12.94456,5.98109 -12.79353,5.91165 -13.64794,6.27556 -6.29268,2.68022 -12.81567,4.14886 -19.74396,4.44531 -0.53361,0.0228 -2.97101,0.045 -3.40256,0.031 z"
     id="path311" />
  <path
     style="fill:#f90013;fill-opacity:1;stroke-width:1.02998"
     d="m 240.5008,252.91717 c -9.9916,-3.60659 -18.49976,-7.46809 -123.55738,-56.0776 C 53.034118,167.26913 9.7531405,146.67728 8.0202086,145.01703 3.5397443,140.72447 1.029982,134.56963 1.029982,127.87449 c 0,-12.53151 4.3426088,-17.19024 24.76083,-26.56326 C 33.982224,97.550951 84.350031,74.285099 137.71927,49.60934 191.08851,24.933583 236.97421,3.9776424 239.68749,3.0405856 c 7.3242,-2.52948177 20.09469,-3.04846812 28.17794,-1.1451369 4.33344,1.0203806 41.72436,17.7549453 104.02818,46.5585273 53.49475,24.73108 104.4445,48.279519 113.22166,52.329864 18.53006,8.55097 22.73438,11.97979 25.23453,20.57998 1.28671,4.42617 1.39521,6.57416 0.52763,10.44554 -2.36693,10.56168 -5.81043,14.0184 -21.12227,21.20329 -71.72817,33.65761 -215.23922,99.23984 -219.71207,100.40487 -8.03843,2.09374 -23.06051,1.83931 -29.54229,-0.50035 z"
     id="path4865" />
  <path
     style="fill:#f90013;fill-opacity:1;stroke-width:1.02998"
     d="M 244.41747,382.11719 C 235.83335,380.25148 14.471701,278.05924 8.8899371,273.38522 3.6686694,269.01308 1.0810751,263.15823 1.0526025,255.652 1.0251254,248.40824 3.5257182,242.99525 8.9970604,238.45477 12.387743,235.64096 64.674184,210.63132 67.1662,210.63132 c 0.519296,0 36.02408,16.1733 78.89953,35.94067 42.87544,19.76737 81.1998,36.94284 85.16523,38.16771 15.51619,4.79276 36.05008,4.44695 51.76333,-0.87175 4.95308,-1.67654 43.21652,-18.84064 85.02985,-38.14244 41.81335,-19.30181 76.47501,-35.09419 77.02594,-35.09419 0.55093,0 12.92095,5.52639 27.48894,12.28087 34.59717,16.04106 38.66787,19.53535 38.58584,33.12215 -0.0404,6.68737 -2.50896,12.21728 -7.6309,17.09416 -4.98955,4.75081 -226.55025,106.92899 -236.37686,109.01101 -8.55245,1.81206 -14.28558,1.80643 -22.69963,-0.0223 z"
     id="path4904" />
  <path
     style="fill:#f90013;fill-opacity:1;stroke-width:1.02998"
     d="M 243.04825,509.83139 C 237.15139,508.39866 16.693782,407.05057 10.285737,402.82652 8.2952752,401.51445 5.374318,398.06638 3.7947201,395.16414 -1.6146732,385.2253 0.41640565,373.30027 8.6785305,366.48993 10.652153,364.86311 24.607674,357.83222 39.690799,350.86575 l 27.423863,-12.66632 76.393248,35.26885 c 42.01629,19.39786 80.10118,36.55906 84.6331,38.13599 17.18559,5.97992 36.75528,6.17914 54.30554,0.55284 4.12135,-1.32124 42.3813,-18.50593 85.02209,-38.18821 l 77.52871,-35.78596 28.21431,13.0759 c 29.12498,13.49795 32.32135,15.54332 36.16101,23.13962 4.37194,8.64931 0.78963,22.28903 -7.37245,28.07081 -6.54031,4.63296 -226.17717,105.65797 -233.42396,107.36658 -7.85153,1.85118 -17.8977,1.84943 -25.52801,-0.004 z"
     id="path4943" />
</svg>
